<svg width="16" height="17" viewBox="0 0 16 17" fill="none" xmlns="http://www.w3.org/2000/svg">
<g id="captive_portal">
<path id="captive_portal_2" d="M6.26659 13.8338C6.06659 13.4671 5.89159 13.0866 5.74159 12.6921C5.59159 12.2977 5.46659 11.8893 5.36659 11.4671H3.39992C3.72214 12.0227 4.12492 12.506 4.60825 12.9171C5.09159 13.3282 5.64436 13.6338 6.26659 13.8338ZM2.83325 10.1338H5.09992C5.06659 9.91157 5.04159 9.69212 5.02492 9.47546C5.00825 9.25879 4.99992 9.03379 4.99992 8.80046C4.99992 8.56712 5.00825 8.34212 5.02492 8.12546C5.04159 7.90879 5.06659 7.68934 5.09992 7.46712H2.83325C2.7777 7.68934 2.73603 7.90879 2.70825 8.12546C2.68047 8.34212 2.66659 8.56712 2.66659 8.80046C2.66659 9.03379 2.68047 9.25879 2.70825 9.47546C2.73603 9.69212 2.7777 9.91157 2.83325 10.1338ZM3.39992 6.13379H5.36659C5.46659 5.71157 5.59159 5.30323 5.74159 4.90879C5.89159 4.51434 6.06659 4.13379 6.26659 3.76712C5.64436 3.96712 5.09159 4.27268 4.60825 4.68379C4.12492 5.0949 3.72214 5.57823 3.39992 6.13379ZM6.73325 6.13379H9.26659C9.13325 5.6449 8.96103 5.18379 8.74992 4.75046C8.53881 4.31712 8.28881 3.90046 7.99992 3.50046C7.71103 3.90046 7.46103 4.31712 7.24992 4.75046C7.03881 5.18379 6.86659 5.6449 6.73325 6.13379ZM10.6333 6.13379H12.5999C12.2777 5.57823 11.8749 5.0949 11.3916 4.68379C10.9083 4.27268 10.3555 3.96712 9.73325 3.76712C9.93325 4.13379 10.1083 4.51434 10.2583 4.90879C10.4083 5.30323 10.5333 5.71157 10.6333 6.13379ZM7.99992 15.4671C7.08881 15.4671 6.2277 15.2921 5.41659 14.9421C4.60547 14.5921 3.89714 14.1143 3.29159 13.5088C2.68603 12.9032 2.20825 12.1949 1.85825 11.3838C1.50825 10.5727 1.33325 9.71157 1.33325 8.80046C1.33325 7.87823 1.50825 7.01434 1.85825 6.20879C2.20825 5.40323 2.68603 4.69768 3.29159 4.09212C3.89714 3.48657 4.60547 3.00879 5.41659 2.65879C6.2277 2.30879 7.08881 2.13379 7.99992 2.13379C8.92214 2.13379 9.78603 2.30879 10.5916 2.65879C11.3971 3.00879 12.1027 3.48657 12.7083 4.09212C13.3138 4.69768 13.7916 5.40323 14.1416 6.20879C14.4916 7.01434 14.6666 7.87823 14.6666 8.80046C14.6666 8.91157 14.6638 9.02268 14.6583 9.13379C14.6527 9.2449 14.6444 9.35601 14.6333 9.46712H13.2833C13.3055 9.35601 13.3194 9.24768 13.3249 9.14212C13.3305 9.03657 13.3333 8.92268 13.3333 8.80046C13.3333 8.56712 13.3194 8.34212 13.2916 8.12546C13.2638 7.90879 13.2221 7.68934 13.1666 7.46712H10.8999C10.9333 7.68934 10.9583 7.90879 10.9749 8.12546C10.9916 8.34212 10.9999 8.56712 10.9999 8.80046V9.14212C10.9999 9.24768 10.9944 9.35601 10.9833 9.46712H9.64992C9.66103 9.35601 9.66659 9.24768 9.66659 9.14212V8.80046C9.66659 8.56712 9.65825 8.34212 9.64159 8.12546C9.62492 7.90879 9.59992 7.68934 9.56659 7.46712H6.43325C6.39992 7.68934 6.37492 7.90879 6.35825 8.12546C6.34159 8.34212 6.33325 8.56712 6.33325 8.80046C6.33325 9.03379 6.34159 9.25879 6.35825 9.47546C6.37492 9.69212 6.39992 9.91157 6.43325 10.1338H8.66659V11.4671H6.73325C6.86659 11.956 7.03881 12.4171 7.24992 12.8505C7.46103 13.2838 7.71103 13.7005 7.99992 14.1005C8.12214 13.9227 8.23881 13.7421 8.34992 13.5588C8.46103 13.3755 8.56659 13.1893 8.66659 13.0005V15.4338C8.55547 15.4449 8.44714 15.4532 8.34159 15.4588C8.23603 15.4643 8.12214 15.4671 7.99992 15.4671ZM13.2999 15.0505L11.3333 13.0838V14.5671H9.99992V10.8005H13.7666V12.1338H12.2666L14.2333 14.1005L13.2999 15.0505Z" fill="white"/>
</g>
</svg>
