<svg width="16" height="16" viewBox="0 0 16 16" fill="none" xmlns="http://www.w3.org/2000/svg">
<g id="XMLID_16_">
<path id="XMLID_17_" fill-rule="evenodd" clip-rule="evenodd" d="M4.48354 0.168457H11.5326C13.7988 0.168457 15.6597 2.03512 15.6597 4.29646V11.3151C15.6597 13.5818 13.7935 15.4431 11.5326 15.4431H4.48354C2.21737 15.4431 0.356457 13.5765 0.356457 11.3151V4.30179C0.351125 2.03512 2.21737 0.168457 4.48354 0.168457ZM12.1192 2.84046C12.5937 2.84046 12.9936 3.24046 12.9936 3.71512C12.9936 4.18979 12.5937 4.58979 12.1192 4.58979C11.6073 4.58979 11.2447 4.18979 11.2447 3.71512C11.2394 3.24046 11.6073 2.84046 12.1192 2.84046ZM7.98676 3.64046H8.02409C10.2902 3.64046 12.1885 5.53912 12.1885 7.80579C12.1885 10.1098 10.2902 11.9711 8.02409 11.9711H7.98676C5.7206 11.9711 3.85968 10.1045 3.85968 7.80579C3.85968 5.54446 5.72593 3.64046 7.98676 3.64046ZM7.98676 5.06979H8.02409C9.52242 5.06979 10.7648 6.31246 10.7648 7.81112C10.7648 9.34712 9.52242 10.5898 8.02409 10.5898H7.98676C6.48843 10.5898 5.24603 9.34712 5.24603 7.81112C5.25137 6.31246 6.49376 5.06979 7.98676 5.06979ZM4.51553 1.48579H11.4953C13.0683 1.48579 14.348 2.76579 14.348 4.33912V11.2831C14.348 12.8565 13.0683 14.1365 11.4953 14.1365H4.51553C2.94255 14.1365 1.66283 12.8565 1.66283 11.2831V4.33379C1.66817 2.76579 2.94788 1.48579 4.51553 1.48579Z" fill="white"/>
</g>
</svg>
