<svg width="14" height="15" viewBox="0 0 14 15" fill="none" xmlns="http://www.w3.org/2000/svg">
<path id="XMLID_5_" fill-rule="evenodd" clip-rule="evenodd" d="M0.337956 5.3844H3.03662V14.4511H0.337956V5.3844ZM1.6713 0.781738C2.57263 0.781738 3.30329 1.51774 3.30329 2.41374C3.30329 3.31507 2.5673 4.04574 1.6713 4.04574C0.769962 4.04574 0.0712891 3.30974 0.0712891 2.41374C0.0712891 1.51774 0.769962 0.781738 1.6713 0.781738ZM4.63662 5.3844H7.30329V6.65374C7.86862 5.82174 8.80196 5.2884 9.86863 5.2884H10.6046C12.306 5.2884 13.6713 6.69107 13.6713 8.35507V9.7204V11.3524V14.4511H11.0046V14.4191V13.6191V9.54974C10.9726 8.51507 10.2686 7.71507 9.23929 7.71507C8.20462 7.71507 7.34062 8.51507 7.30329 9.54974V13.0857V14.4511H4.63662V5.3844Z" fill="white"/>
</svg>
