<svg width="16" height="14" viewBox="0 0 16 14" fill="none" xmlns="http://www.w3.org/2000/svg">
<g id="XMLID_3_">
<path id="XMLID_4_" fill-rule="evenodd" clip-rule="evenodd" d="M8.12833 4.67752C7.53633 1.56819 11.2803 -0.287814 13.483 1.95752C13.483 1.95752 14.4697 1.68019 15.3337 1.13085C15.3337 1.13085 15.019 2.19219 13.9577 2.86419C13.9577 2.86419 15.1417 2.70419 15.6537 2.38952C15.6537 2.38952 15.1417 3.45085 14.1977 3.84552C14.7097 10.9762 7.02966 15.3069 0.805664 11.7655C0.805664 11.7655 3.87766 11.9255 5.179 10.4269C5.179 10.4269 3.28567 10.5869 2.34167 8.29885C2.34167 8.29885 3.051 8.57619 3.76033 8.21885C3.76033 8.21885 1.55233 7.86685 1.355 5.22685C1.355 5.22685 2.06433 5.77619 2.85367 5.57885C2.85367 5.57885 0.410997 4.12285 1.79233 1.48285C1.787 1.48819 4.38433 4.79485 8.12833 4.67752Z" fill="white"/>
</g>
</svg>
