<svg width="16" height="11" viewBox="0 0 16 11" fill="none" xmlns="http://www.w3.org/2000/svg">
<g id="XMLID_7_">
<path id="XMLID_9_" fill-rule="evenodd" clip-rule="evenodd" d="M3.60551 0.717542C5.04017 0.600209 6.73617 0.546875 8.02684 0.546875C9.31751 0.546875 10.9868 0.605542 12.4482 0.717542C14.1442 0.861542 15.0028 1.14954 15.2322 2.84021C15.3495 3.61354 15.4028 4.68021 15.4028 5.76821C15.4028 6.86154 15.3442 7.94954 15.2322 8.69621C15.0028 10.4189 14.1388 10.6802 12.4482 10.8189C10.9815 10.9629 9.31751 10.9895 8.02684 10.9895C6.73617 10.9895 5.04017 10.9629 3.60551 10.8189C1.90951 10.6749 1.01884 10.4189 0.789508 8.69621C0.704175 7.94954 0.645508 6.85621 0.645508 5.76821C0.645508 4.67488 0.704175 3.61354 0.789508 2.84021C1.01884 1.14954 1.90951 0.861542 3.60551 0.717542Z" fill="white"/>
<path id="XMLID_8_" fill-rule="evenodd" clip-rule="evenodd" d="M6.5332 3.56006L10.3839 5.76806L6.5332 8.00806V3.56006Z" fill="#231F20"/>
</g>
</svg>
