<svg width="24" height="25" viewBox="0 0 24 25" fill="none" xmlns="http://www.w3.org/2000/svg">
<path fill-rule="evenodd" clip-rule="evenodd" d="M20.1707 24.8003H3.82933C1.72267 24.8003 0 23.0776 0 20.971V4.62963C0 2.52296 1.72267 0.800293 3.82933 0.800293H20.1707C22.2773 0.800293 24 2.52296 24 4.62963V20.971C24 23.0776 22.2773 24.8003 20.1707 24.8003Z" fill="#231F20"/>
<path fill-rule="evenodd" clip-rule="evenodd" d="M9.74907 21.8563H13.0184V14.3096H15.4344L15.9197 11.2589H13.0184V8.95493C13.0184 8.1016 13.8344 7.61627 14.6184 7.61627H16.0317V5.08827L13.5037 4.97627C11.0877 4.82693 9.74907 6.7256 9.74907 8.99227V11.2589H6.99707V14.3096H9.74907V21.8563Z" fill="white"/>
</svg>
