<svg width="92" height="64" viewBox="0 0 92 64" fill="none" xmlns="http://www.w3.org/2000/svg">
<g id="Frame" clip-path="url(#clip0_418_455)">
<g id="Group">
<path id="Vector" fill-rule="evenodd" clip-rule="evenodd" d="M38.05 6.98001C40.998 3.90901 45.105 2.00201 49.645 2.00201C55.68 2.00201 60.947 5.36801 63.751 10.365C66.2599 9.24434 68.9773 8.66671 71.725 8.67001C82.611 8.67001 91.435 17.572 91.435 28.555C91.435 39.538 82.611 48.44 71.725 48.44C70.394 48.44 69.096 48.307 67.841 48.054C65.372 52.457 60.664 55.433 55.263 55.433C53.002 55.433 50.863 54.913 48.96 53.982C46.456 59.872 40.623 64 33.826 64C26.748 64 20.714 59.52 18.399 53.239C17.3676 53.4567 16.3162 53.5663 15.262 53.566C6.83304 53.567 4.23908e-05 46.663 4.23908e-05 38.146C-0.00628116 35.4469 0.694977 32.7933 2.03391 30.4496C3.37284 28.106 5.30268 26.1543 7.63104 24.789C6.66509 22.5633 6.16809 20.1623 6.17104 17.736C6.17104 7.94001 14.122 1.20693e-05 23.93 1.20693e-05C26.6623 -0.00317572 29.3584 0.625153 31.8077 1.83595C34.257 3.04674 36.3934 4.80724 38.05 6.98001Z" fill="#00A1E0"/>
<path id="Vector_2" fill-rule="evenodd" clip-rule="evenodd" d="M13.244 33.19L13.614 32.163C13.673 31.987 13.806 32.045 13.86 32.078C13.963 32.139 14.037 32.194 14.17 32.272C15.26 32.961 16.27 32.968 16.585 32.968C17.401 32.968 17.907 32.536 17.907 31.953V31.923C17.907 31.289 17.127 31.049 16.226 30.773L16.026 30.709C14.789 30.357 13.466 29.848 13.466 28.282V28.25C13.466 26.764 14.665 25.727 16.381 25.727L16.569 25.725C17.577 25.725 18.551 26.018 19.257 26.446C19.321 26.486 19.383 26.56 19.347 26.658L18.967 27.685C18.9 27.86 18.717 27.744 18.717 27.744C17.9804 27.3602 17.1654 27.1511 16.335 27.133C15.607 27.133 15.139 27.519 15.139 28.043V28.076C15.139 28.687 15.941 28.948 16.871 29.251L17.031 29.301C18.264 29.691 19.58 30.231 19.58 31.716V31.747C19.58 33.352 18.414 34.349 16.539 34.349C15.618 34.349 14.737 34.207 13.805 33.712C13.629 33.61 13.455 33.522 13.283 33.397C13.265 33.371 13.186 33.34 13.243 33.19H13.244ZM40.701 33.19L41.072 32.163C41.126 31.995 41.283 32.057 41.317 32.078C41.419 32.141 41.495 32.194 41.627 32.272C42.719 32.961 43.727 32.968 44.045 32.968C44.858 32.968 45.365 32.536 45.365 31.953V31.923C45.365 31.289 44.586 31.049 43.685 30.773L43.485 30.709C42.246 30.357 40.923 29.848 40.923 28.282V28.25C40.923 26.764 42.123 25.727 43.839 25.727L44.026 25.725C45.034 25.725 46.009 26.018 46.716 26.446C46.778 26.486 46.841 26.56 46.806 26.658C46.771 26.749 46.459 27.589 46.426 27.685C46.357 27.86 46.176 27.744 46.176 27.744C45.4391 27.36 44.6237 27.151 43.793 27.133C43.065 27.133 42.597 27.519 42.597 28.043V28.076C42.597 28.687 43.398 28.948 44.329 29.251L44.489 29.301C45.722 29.691 47.037 30.231 47.037 31.716V31.747C47.037 33.352 45.872 34.349 43.997 34.349C43.075 34.349 42.194 34.207 41.263 33.712C41.087 33.61 40.913 33.522 40.74 33.397C40.722 33.371 40.643 33.34 40.701 33.19ZM61.011 28.361C61.165 28.877 61.241 29.444 61.241 30.043C61.241 30.643 61.165 31.208 61.011 31.724C60.8702 32.2216 60.6285 32.6848 60.301 33.085C59.9729 33.4736 59.5613 33.7833 59.097 33.991C58.617 34.211 58.053 34.321 57.419 34.321C56.785 34.321 56.219 34.211 55.741 33.991C55.2767 33.7833 54.8651 33.4736 54.537 33.085C54.2098 32.6848 53.9679 32.222 53.826 31.725C53.6688 31.1783 53.5913 30.6118 53.596 30.043C53.596 29.443 53.673 28.877 53.826 28.361C53.98 27.841 54.219 27.383 54.536 27.001C54.8649 26.6108 55.2765 26.2986 55.741 26.087C56.22 25.863 56.783 25.75 57.419 25.75C58.055 25.75 58.618 25.863 59.097 26.087C59.575 26.31 59.981 26.617 60.301 27.001C60.619 27.383 60.859 27.841 61.011 28.361ZM59.447 30.043C59.447 29.136 59.279 28.423 58.945 27.923C58.615 27.427 58.115 27.187 57.419 27.187C56.723 27.187 56.227 27.427 55.901 27.923C55.574 28.423 55.407 29.136 55.407 30.043C55.407 30.949 55.574 31.667 55.903 32.171C56.227 32.673 56.723 32.916 57.419 32.916C58.115 32.916 58.615 32.672 58.945 32.171C59.277 31.667 59.447 30.949 59.447 30.043ZM73.869 32.673L74.253 33.735C74.303 33.865 74.19 33.922 74.19 33.922C73.597 34.152 72.774 34.316 71.973 34.316C70.615 34.316 69.575 33.925 68.881 33.153C68.191 32.383 67.839 31.336 67.839 30.037C67.839 29.436 67.926 28.867 68.096 28.352C68.266 27.832 68.521 27.374 68.857 26.992C69.2059 26.5993 69.6362 26.2874 70.118 26.078C70.618 25.855 71.206 25.743 71.862 25.743C72.305 25.743 72.699 25.77 73.037 25.82C73.398 25.876 73.879 26.006 74.082 26.085C74.119 26.099 74.222 26.149 74.18 26.27C74.032 26.687 73.931 26.959 73.794 27.339C73.734 27.501 73.612 27.447 73.612 27.447C73.097 27.285 72.603 27.211 71.958 27.211C71.183 27.211 70.601 27.469 70.221 27.974C69.837 28.483 69.622 29.15 69.619 30.037C69.616 31.01 69.86 31.731 70.292 32.177C70.723 32.622 71.325 32.847 72.083 32.847C72.39 32.847 72.68 32.827 72.941 32.786C73.199 32.745 73.441 32.665 73.669 32.576C73.669 32.576 73.816 32.521 73.869 32.673ZM81.879 28.066C82.22 29.26 82.042 30.291 82.036 30.348C82.023 30.484 81.883 30.486 81.883 30.486L76.584 30.482C76.617 31.287 76.81 31.857 77.2 32.244C77.583 32.623 78.191 32.866 79.014 32.867C80.272 32.87 80.809 32.617 81.19 32.476C81.19 32.476 81.335 32.424 81.39 32.568L81.735 33.539C81.805 33.702 81.749 33.759 81.69 33.792C81.358 33.975 80.553 34.317 79.021 34.321C78.278 34.324 77.631 34.218 77.098 34.011C76.5915 33.8234 76.1353 33.5212 75.765 33.128C75.4111 32.7422 75.1483 32.2819 74.996 31.781C74.832 31.2322 74.7514 30.6618 74.757 30.089C74.757 29.489 74.834 28.919 74.989 28.398C75.144 27.873 75.385 27.41 75.706 27.021C76.0387 26.624 76.4558 26.3062 76.927 26.091C77.413 25.862 78.015 25.75 78.677 25.75C79.244 25.75 79.762 25.872 80.193 26.058C80.525 26.2 80.859 26.457 81.201 26.825C81.417 27.057 81.746 27.565 81.879 28.066ZM76.609 29.173H80.389C80.35 28.687 80.255 28.251 80.037 27.923C79.705 27.427 79.247 27.154 78.552 27.154C77.856 27.154 77.362 27.427 77.035 27.923C76.821 28.251 76.684 28.669 76.609 29.173ZM39.434 28.066C39.774 29.26 39.599 30.291 39.593 30.348C39.579 30.484 39.439 30.486 39.439 30.486L34.139 30.482C34.173 31.287 34.365 31.857 34.756 32.244C35.139 32.623 35.746 32.866 36.569 32.867C37.827 32.87 38.366 32.617 38.746 32.476C38.746 32.476 38.891 32.424 38.945 32.568L39.291 33.539C39.361 33.702 39.305 33.759 39.247 33.792C38.913 33.975 38.107 34.317 36.577 34.321C35.833 34.324 35.186 34.218 34.654 34.011C34.1474 33.8231 33.6909 33.521 33.32 33.128C32.967 32.7418 32.705 32.2816 32.553 31.781C32.3878 31.2324 32.3065 30.6619 32.312 30.089C32.312 29.489 32.39 28.919 32.544 28.398C32.6881 27.8953 32.9323 27.4269 33.262 27.021C33.5946 26.6243 34.0114 26.3066 34.482 26.091C34.97 25.862 35.572 25.75 36.232 25.75C36.7536 25.7488 37.2701 25.8536 37.75 26.058C38.082 26.2 38.416 26.457 38.757 26.825C38.973 27.057 39.302 27.565 39.434 28.066ZM34.163 29.173H37.945C37.905 28.687 37.81 28.251 37.593 27.923C37.263 27.427 36.803 27.154 36.108 27.154C35.412 27.154 34.917 27.427 34.592 27.923C34.376 28.251 34.24 28.669 34.163 29.173ZM24.817 28.92C24.817 28.92 25.235 28.957 25.691 29.023V28.799C25.691 28.092 25.544 27.759 25.255 27.536C24.959 27.31 24.517 27.193 23.945 27.193C23.945 27.193 22.655 27.177 21.635 27.731C21.588 27.759 21.549 27.775 21.549 27.775C21.549 27.775 21.421 27.82 21.375 27.689L21 26.681C20.942 26.536 21.047 26.47 21.047 26.47C21.524 26.098 22.68 25.873 22.68 25.873C23.1493 25.7905 23.6245 25.7467 24.101 25.742C25.159 25.742 25.978 25.988 26.535 26.475C27.093 26.964 27.377 27.752 27.377 28.814L27.38 33.662C27.38 33.662 27.391 33.802 27.258 33.834C27.258 33.834 27.063 33.888 26.888 33.929C26.711 33.97 26.073 34.1 25.552 34.188C25.02 34.2772 24.4814 34.322 23.942 34.322C23.427 34.322 22.955 34.274 22.539 34.179C22.1513 34.0978 21.7842 33.9386 21.46 33.711C21.1645 33.4964 20.9274 33.2115 20.77 32.882C20.607 32.549 20.525 32.142 20.525 31.672C20.525 31.211 20.622 30.8 20.809 30.45C20.997 30.102 21.255 29.807 21.579 29.576C21.9137 29.3403 22.288 29.1666 22.684 29.063C23.097 28.953 23.536 28.896 23.99 28.896C24.323 28.896 24.601 28.903 24.817 28.92ZM22.708 32.644C22.705 32.643 23.183 33.019 24.262 32.953C25.02 32.907 25.692 32.763 25.692 32.763V30.353C25.692 30.353 25.014 30.242 24.253 30.231C23.174 30.218 22.714 30.615 22.717 30.614C22.399 30.84 22.244 31.175 22.244 31.639C22.244 31.936 22.297 32.168 22.404 32.33C22.471 32.437 22.5 32.477 22.708 32.644ZM67.563 26.189C67.513 26.334 67.256 27.06 67.163 27.301C67.129 27.393 67.073 27.456 66.97 27.445C66.97 27.445 66.666 27.375 66.388 27.375C66.197 27.375 65.924 27.399 65.678 27.475C65.4313 27.5508 65.2068 27.6857 65.024 27.868C64.83 28.055 64.673 28.318 64.559 28.648C64.443 28.98 64.383 29.508 64.383 30.038V33.986C64.3831 34.0071 64.3791 34.028 64.3711 34.0475C64.3631 34.0671 64.3514 34.0848 64.3365 34.0998C64.3216 34.1147 64.3039 34.1266 64.2845 34.1347C64.265 34.1428 64.2441 34.147 64.223 34.147H62.832C62.8107 34.1473 62.7896 34.1433 62.7699 34.1354C62.7501 34.1275 62.7321 34.1158 62.7169 34.101C62.7016 34.0861 62.6895 34.0684 62.6811 34.0488C62.6727 34.0293 62.6683 34.0083 62.668 33.987V26.082C62.668 25.993 62.733 25.922 62.822 25.922H64.179C64.269 25.922 64.333 25.993 64.333 26.082V26.728C64.536 26.456 64.9 26.216 65.229 26.068C65.559 25.918 65.928 25.808 66.595 25.848C66.942 25.869 67.393 25.964 67.484 25.999C67.5018 26.0061 67.518 26.0167 67.5316 26.0302C67.5453 26.0437 67.5561 26.0597 67.5634 26.0774C67.5708 26.0951 67.5745 26.1141 67.5745 26.1332C67.5744 26.1524 67.5705 26.1714 67.563 26.189ZM54.493 22.526C54.53 22.541 54.631 22.59 54.591 22.71L54.184 23.823C54.15 23.907 54.128 23.957 53.955 23.905C53.7262 23.833 53.4879 23.796 53.248 23.795C53.038 23.795 52.848 23.822 52.68 23.878C52.5119 23.9318 52.3595 24.0259 52.236 24.152C52.0717 24.3108 51.9446 24.5041 51.864 24.718C51.669 25.278 51.594 25.875 51.584 25.913H53.278C53.421 25.913 53.466 25.979 53.452 26.084L53.254 27.186C53.222 27.346 53.077 27.34 53.077 27.34H51.331L50.138 34.096C50.0354 34.7019 49.8795 35.2976 49.672 35.876C49.485 36.365 49.292 36.722 48.982 37.063C48.7174 37.3682 48.3809 37.6026 48.003 37.745C47.636 37.88 47.19 37.949 46.703 37.949C46.471 37.949 46.221 37.944 45.926 37.874C45.7616 37.8364 45.5997 37.789 45.441 37.732C45.376 37.709 45.323 37.626 45.361 37.52C45.397 37.415 45.711 36.556 45.753 36.443C45.807 36.307 45.945 36.359 45.945 36.359C46.039 36.399 46.105 36.425 46.23 36.45C46.357 36.475 46.527 36.497 46.656 36.497C46.887 36.497 47.097 36.469 47.28 36.407C47.5 36.336 47.63 36.207 47.764 36.035C47.904 35.854 48.018 35.609 48.135 35.28C48.252 34.947 48.359 34.507 48.451 33.974L49.639 27.341H48.469C48.329 27.341 48.281 27.275 48.297 27.169L48.493 26.067C48.524 25.907 48.673 25.913 48.673 25.913H49.874L49.939 25.555C50.119 24.491 50.476 23.682 51.004 23.151C51.535 22.616 52.29 22.346 53.248 22.346C53.522 22.346 53.764 22.364 53.969 22.401C54.17 22.439 54.323 22.474 54.493 22.526ZM30.817 33.986C30.817 34.076 30.755 34.147 30.665 34.147H29.26C29.17 34.147 29.109 34.075 29.109 33.987V22.674C29.109 22.587 29.171 22.515 29.259 22.515H30.665C30.755 22.515 30.817 22.587 30.817 22.675V33.986Z" fill="white"/>
</g>
</g>
<defs>
<clipPath id="clip0_418_455">
<rect width="92" height="64" fill="white"/>
</clipPath>
</defs>
</svg>
