<svg width="24" height="25" viewBox="0 0 24 25" fill="none" xmlns="http://www.w3.org/2000/svg">
<path fill-rule="evenodd" clip-rule="evenodd" d="M20.1715 24.8003H3.82848C1.72228 24.8003 0 23.0776 0 20.971V4.62963C0 2.52296 1.72228 0.800293 3.82848 0.800293H20.1715C22.2777 0.800293 24 2.52296 24 4.62963V20.971C23.9947 23.0776 22.2724 24.8003 20.1715 24.8003Z" fill="#231F20"/>
<path fill-rule="evenodd" clip-rule="evenodd" d="M8.48354 5.16821H15.5326C17.7988 5.16821 19.6597 7.03488 19.6597 9.29621V16.3149C19.6597 18.5815 17.7935 20.4429 15.5326 20.4429H8.48354C6.21737 20.4429 4.35646 18.5762 4.35646 16.3149V9.30155C4.35112 7.03488 6.21737 5.16821 8.48354 5.16821ZM16.1192 7.84021C16.5937 7.84021 16.9936 8.24021 16.9936 8.71488C16.9936 9.18955 16.5937 9.58955 16.1192 9.58955C15.6073 9.58955 15.2447 9.18955 15.2447 8.71488C15.2394 8.24021 15.6073 7.84021 16.1192 7.84021ZM11.9868 8.64021H12.0241C14.2902 8.64021 16.1885 10.5389 16.1885 12.8055C16.1885 15.1095 14.2902 16.9709 12.0241 16.9709H11.9868C9.7206 16.9709 7.85968 15.1042 7.85968 12.8055C7.85968 10.5442 9.72593 8.64021 11.9868 8.64021ZM11.9868 10.0695H12.0241C13.5224 10.0695 14.7648 11.3122 14.7648 12.8109C14.7648 14.3469 13.5224 15.5895 12.0241 15.5895H11.9868C10.4884 15.5895 9.24603 14.3469 9.24603 12.8109C9.25137 11.3122 10.4938 10.0695 11.9868 10.0695ZM8.51553 6.48555H15.4953C17.0683 6.48555 18.348 7.76555 18.348 9.33888V16.2829C18.348 17.8562 17.0683 19.1362 15.4953 19.1362H8.51553C6.94255 19.1362 5.66283 17.8562 5.66283 16.2829V9.33355C5.66817 7.76555 6.94788 6.48555 8.51553 6.48555Z" fill="white"/>
</svg>
