<svg width="24" height="25" viewBox="0 0 24 25" fill="none" xmlns="http://www.w3.org/2000/svg">
<path fill-rule="evenodd" clip-rule="evenodd" d="M20.1707 24.8003H3.82934C1.72267 24.8003 0 23.0776 0 20.971V4.62963C0 2.52296 1.72267 0.800293 3.82934 0.800293H20.1707C22.2773 0.800293 24 2.52296 24 4.62963V20.971C24 23.0776 22.2773 24.8003 20.1707 24.8003Z" fill="#231F20"/>
<path fill-rule="evenodd" clip-rule="evenodd" d="M5.33796 10.3842H8.03662V19.4508H5.33796V10.3842ZM6.6713 5.78149C7.57263 5.78149 8.30329 6.51749 8.30329 7.41349C8.30329 8.31483 7.5673 9.04549 6.6713 9.04549C5.76996 9.04549 5.07129 8.30949 5.07129 7.41349C5.07129 6.51749 5.76996 5.78149 6.6713 5.78149ZM9.63662 10.3842H12.3033V11.6535C12.8686 10.8215 13.802 10.2882 14.8686 10.2882H15.6046C17.306 10.2882 18.6713 11.6908 18.6713 13.3548V14.7202V16.3522V19.4508H16.0046V19.4188V18.6188V14.5495C15.9726 13.5148 15.2686 12.7148 14.2393 12.7148C13.2046 12.7148 12.3406 13.5148 12.3033 14.5495V18.0855V19.4508H9.63662V10.3842Z" fill="white"/>
</svg>
