<svg width="24" height="25" viewBox="0 0 24 25" fill="none" xmlns="http://www.w3.org/2000/svg">
<path fill-rule="evenodd" clip-rule="evenodd" d="M20.1707 24.8003H3.82933C1.72266 24.8003 0 23.0776 0 20.971V4.62963C0 2.52296 1.72266 0.800293 3.82933 0.800293H20.1707C22.2773 0.800293 24 2.52296 24 4.62963V20.971C24 23.0776 22.2773 24.8003 20.1707 24.8003Z" fill="#231F20"/>
<path fill-rule="evenodd" clip-rule="evenodd" d="M12.1283 10.6775C11.5363 7.56819 15.2803 5.71219 17.483 7.95752C17.483 7.95752 18.4697 7.68019 19.3337 7.13085C19.3337 7.13085 19.019 8.19219 17.9577 8.86419C17.9577 8.86419 19.1417 8.70419 19.6537 8.38952C19.6537 8.38952 19.1417 9.45085 18.1977 9.84552C18.7097 16.9762 11.0297 21.3069 4.80566 17.7655C4.80566 17.7655 7.87766 17.9255 9.179 16.4269C9.179 16.4269 7.28567 16.5869 6.34167 14.2989C6.34167 14.2989 7.051 14.5762 7.76033 14.2189C7.76033 14.2189 5.55233 13.8669 5.355 11.2269C5.355 11.2269 6.06433 11.7762 6.85367 11.5789C6.85367 11.5789 4.411 10.1229 5.79233 7.48285C5.787 7.48819 8.38433 10.7949 12.1283 10.6775Z" fill="white"/>
</svg>
