<svg width="24" height="25" viewBox="0 0 24 25" fill="none" xmlns="http://www.w3.org/2000/svg">
<path fill-rule="evenodd" clip-rule="evenodd" d="M20.1707 24.8003H3.82933C1.72267 24.8003 0 23.0776 0 20.971V4.62963C0 2.52296 1.72267 0.800293 3.82933 0.800293H20.1707C22.2773 0.800293 24 2.52296 24 4.62963V20.971C24 23.0776 22.2773 24.8003 20.1707 24.8003Z" fill="#231F20"/>
<path fill-rule="evenodd" clip-rule="evenodd" d="M7.60551 7.71754C9.04017 7.60021 10.7362 7.54688 12.0268 7.54688C13.3175 7.54688 14.9868 7.60554 16.4482 7.71754C18.1442 7.86154 19.0028 8.14954 19.2322 9.84021C19.3495 10.6135 19.4028 11.6802 19.4028 12.7682C19.4028 13.8615 19.3442 14.9495 19.2322 15.6962C19.0028 17.4189 18.1388 17.6802 16.4482 17.8189C14.9815 17.9629 13.3175 17.9895 12.0268 17.9895C10.7362 17.9895 9.04017 17.9629 7.60551 17.8189C5.90951 17.6749 5.01884 17.4189 4.78951 15.6962C4.70417 14.9495 4.64551 13.8562 4.64551 12.7682C4.64551 11.6749 4.70417 10.6135 4.78951 9.84021C5.01884 8.14954 5.90951 7.86154 7.60551 7.71754Z" fill="white"/>
<path fill-rule="evenodd" clip-rule="evenodd" d="M10.5332 10.5601L14.3839 12.7681L10.5332 15.0081V10.5601Z" fill="#231F20"/>
</svg>
