<svg xmlns="http://www.w3.org/2000/svg" viewBox="0 0 1959.45 739.57"><defs><style>.cls-1{fill:#283891;}.cls-2{fill:#25aae1;}</style></defs><title>logo iconAsset 1</title><g id="Layer_2" data-name="Layer 2"><g id="Layer_1-2" data-name="Layer 1"><path class="cls-1" d="M1029.46,656.56c-.39-.43-.84-.72-1-1.12a6.29,6.29,0,0,1-.24-1.89c0-1.76,0-3.52,0-5.28V199.08c0-1.92-.06-3.84-.12-5.76a2.22,2.22,0,0,0-1.1-1.72c-.76-.07-1.71-.2-2.66-.23-1.76,0-3.52,0-5.28,0H9.66c-2.08,0-4.16,0-6.24-.07a2.36,2.36,0,0,1-1.82-.9,23,23,0,0,1,.52-5.54,183.64,183.64,0,0,1,12.93-42.57c2.19-5,4.72-9.79,7.38-14.54a190.2,190.2,0,0,1,15.73-23.5,127.79,127.79,0,0,1,9-10.62c1.89-2,3.62-4.05,5.47-6,1.09-1.17,2.24-2.28,3.41-3.37,1.53-1.41,3.16-2.7,4.65-4.15A199.44,199.44,0,0,1,80.19,63.82a267,267,0,0,1,31.37-20.35q13.85-7.68,28.39-14c9.4-4.09,19-7.64,28.74-10.79a343.9,343.9,0,0,1,33.31-9q11.72-2.53,23.53-4.54c4.56-.77,9.15-1.56,13.75-1.89S248.14,1.89,252.64,2a19.78,19.78,0,0,0,2.85-.34,12.69,12.69,0,0,1,1.89-.33c5.77.07,11.46-1,17.22-1.08C282.44.1,290.28,0,298.12,0h952.77c1.92,0,3.84,0,5.76.12a2.11,2.11,0,0,1,2.08,2.18q.07,1,.09,1.92c0,1.44,0,2.88,0,4.32V245.63c0,1.91.05,3.82.07,5.52.55.64,1,.57,1.41.31,1.74-1.14,3.48-2.28,5.17-3.48q9.38-6.67,18.73-13.4,11.68-8.39,23.38-16.78c5.6-4,11.23-7.94,16.82-11.94,7.81-5.57,15.59-11.19,23.4-16.76,6-4.27,12-8.48,18-12.75s12-8.56,18-12.83q8-5.72,16-11.41,12.3-8.79,24.58-17.59c5.33-3.81,10.69-7.59,16-11.4q12.1-8.64,24.19-17.31c5.2-3.72,10.43-7.41,15.64-11.13q12.48-8.93,25-17.87c5.2-3.72,10.44-7.4,15.64-11.12q12.3-8.77,24.57-17.59c4.94-3.53,9.9-7,14.85-10.58q12.87-9.2,25.75-18.41,10.74-7.66,21.5-15.3c1.69-1.2,3.43-2.33,5.21-3.53,1.1-.09,2.21-.22,3.32-.26,1.27,0,2.56,0,3.84,0h330.23c1.76,0,3.52,0,5.27.08a3.69,3.69,0,0,1,1.15.46,1.08,1.08,0,0,1-.54,1.33q-3.69,2.67-7.41,5.3-19.18,13.59-38.37,27.17c-7,5-14.16,9.89-21.21,14.88-5.88,4.15-11.7,8.37-17.57,12.53-4.05,2.87-8.14,5.68-12.18,8.54q-13.7,9.7-27.38,19.45c-6,4.25-12,8.45-18,12.7-7.18,5.08-14.33,10.2-21.52,15.27-6.92,4.89-13.89,9.71-20.81,14.6-6,4.25-12,8.55-18,12.81-3.78,2.69-7.6,5.32-11.38,8q-14.3,10.13-28.56,20.27c-6.93,4.89-13.9,9.71-20.82,14.6-6,4.24-12,8.55-18,12.81-3.78,2.68-7.6,5.32-11.38,8q-14.3,10.13-28.56,20.27c-6.92,4.89-13.9,9.71-20.82,14.6-6,4.24-12,8.55-18,12.81-3.78,2.68-7.6,5.31-11.38,8q-14.28,10.13-28.56,20.27c-6.92,4.89-13.89,9.71-20.82,14.6-6,4.24-12,8.55-18,12.81-3.78,2.69-7.6,5.32-11.39,8q-14.28,10.13-28.56,20.27c-6.92,4.89-13.89,9.71-20.81,14.6-6,4.24-12,8.55-18,12.81-3.78,2.68-7.6,5.31-11.38,8-9.53,6.75-19,13.54-28.56,20.27-6.92,4.89-13.9,9.71-20.82,14.6-6,4.24-12,8.55-18,12.81-3.78,2.69-7.6,5.32-11.38,8q-14.28,10.13-28.56,20.27c-6.92,4.89-13.89,9.71-20.82,14.6-6,4.24-12,8.55-18,12.81-3.92,2.77-7.82,5.56-11.8,8.24-3.31,2.23-6.26,5-10,6.63a3.54,3.54,0,0,0-.73.62c-3.72,3.3-7.94,5.93-12,8.8-11.85,8.44-23.78,16.78-35.67,25.17q-11.16,7.89-22.3,15.81-18,12.78-36,25.53c-6.4,4.53-12.83,9-19.23,13.54-8.87,6.28-17.71,12.61-26.59,18.89-6.79,4.8-13.62,9.54-20.42,14.33-6.13,4.34-12.23,8.73-18.36,13.08-3.79,2.68-7.6,5.32-11.39,8-7.3,5.17-14.59,10.39-21.92,15.53C1033.12,654.53,1031.54,655.94,1029.46,656.56Z"/><path class="cls-1" d="M.1,739.09a1.8,1.8,0,0,1,.45-1.82c2.69-3.57,5.36-7.18,8.09-10.72,4.58-5.95,9.22-11.86,13.82-17.8q8.09-10.43,16.12-20.87Q48,675.73,57.31,663.57q11.44-14.8,22.9-29.58,11.6-15,23.18-30l16.42-21.24q7.92-10.24,15.86-20.48c3.53-4.53,7.11-9,10.3-13.08a5.06,5.06,0,0,1,3.27-1l5.28,0H671.9q5.52,0,11-.05a31.56,31.56,0,0,0,7.63-.62,10.93,10.93,0,0,1,1.9-.2,141.07,141.07,0,0,0,60.6-18.1,52.22,52.22,0,0,0,14.11-11.42A36.1,36.1,0,0,0,775,503.14a21.92,21.92,0,0,0,.75-5.21c0-1.91,0-3.83,0-5.75,0-7.15-2.54-13.39-6.63-19.15-4-5.6-9.28-9.63-15-13.21a96,96,0,0,0-23.28-10c-4.9-1.48-9.89-2.63-14.9-3.66-3-.61-6-1-9-1.42q-6.4-.87-12.82-1.62c-1.43-.16-2.87-.21-4.31-.23-5.28-.07-10.56-.14-15.84-.14H302.53q-6,0-12,0a38.62,38.62,0,0,1-6.7-.44,27.9,27.9,0,0,0-4.3-.27c-3-.07-6.08-.09-9.12-.15a29.42,29.42,0,0,1-6.68-.56,6.74,6.74,0,0,0-1.42-.19c-4.32-.08-8.6-.6-12.9-1-4.93-.45-9.82-1.13-14.74-1.73-4.76-.58-9.48-1.37-14.2-2.18-4.25-.73-8.53-1.35-12.74-2.24a367.27,367.27,0,0,1-45.3-12.4c-8.76-3.06-17.4-6.4-25.87-10.22-5.55-2.49-11.06-5.05-16.43-7.89a258.63,258.63,0,0,1-22.42-12.95c-6.28-4.14-12.64-8.15-18.59-12.76-5.18-4-10.29-8.1-15.22-12.43-4-3.5-7.83-7.08-11.51-10.86a184.29,184.29,0,0,1-27.53-35.55c-2.34-4-4.78-8-6.79-12.13-2.64-5.47-5.11-11-7.27-16.7a190.24,190.24,0,0,1-9.54-36.6,7.67,7.67,0,0,1,0-1,1.9,1.9,0,0,1,1.12-1.42,12.32,12.32,0,0,1,1.89-.28c1.76-.05,3.52,0,5.28,0H674.27l9.12,0a40,40,0,0,1,7.64.51,23.19,23.19,0,0,0,3.83.22c2.88.07,5.76.08,8.64.14a32.61,32.61,0,0,1,7.63.63,3.39,3.39,0,0,0,1,.12c5.14-.17,10.17,1,15.29,1.16a17.33,17.33,0,0,1,1.91.12c7.28,1,14.59,1.75,21.83,3,10.86,1.86,21.69,3.94,32.39,6.66s21.31,5.69,31.73,9.34c9.51,3.34,18.86,7,28,11.21q7.88,3.56,15.59,7.44c7.86,4,15.42,8.46,22.89,13.1A259.37,259.37,0,0,1,905,320.52c3.27,2.56,6.44,5.25,9.63,7.9,7.78,6.45,14.67,13.81,21.81,20.91,3.41,3.39,6.43,7.12,9.49,10.81a209.51,209.51,0,0,1,19.61,28.39,184.26,184.26,0,0,1,15.26,33,211.48,211.48,0,0,1,6.58,22.05c1.44,6.38,2.71,12.8,3.69,19.29.62,4.11.59,8.29,1.52,12.36a18.57,18.57,0,0,1,.19,3.35,59.16,59.16,0,0,0,.71,10,17,17,0,0,1,.13,3.35c0,3.52.06,7,0,10.56,0,1.91-.3,3.82-.44,5.73-.12,1.59-.25,3.18-.31,4.78a73,73,0,0,1-.75,9.55c-.48,2.82-.68,5.7-1.09,8.54A198.33,198.33,0,0,1,984.22,562a194.23,194.23,0,0,1-30.94,60.83c-3.34,4.5-6.94,8.77-10.46,13.12a33.17,33.17,0,0,1-2.29,2.46c-4,4.11-8.1,8.19-12.12,12.31a203.85,203.85,0,0,1-18.4,16.1,327.12,327.12,0,0,1-26.92,19.23c-6.17,4-12.56,7.65-19,11.14-2,1-3.93,2.14-5.9,3.21-.56.3-1.11.64-1.69.9-5.37,2.49-10.72,5-16.12,7.43q-5.25,2.36-10.61,4.46c-9.82,3.89-19.84,7.21-30,10.22a339.79,339.79,0,0,1-34.95,8.4c-6.12,1.13-12.25,2.2-18.43,3-4.91.65-9.77,1.63-14.73,1.83-4.37,1.13-8.93.57-13.32,1.56a21.15,21.15,0,0,1-3.83.21,56.64,56.64,0,0,0-9.55.72,22.9,22.9,0,0,1-4.31.2c-8.8.08-17.6.2-26.4.2H6.17c-1.6,0-3.2,0-4.8-.07A5,5,0,0,1,.1,739.09Z"/><path class="cls-2" d="M1959.45,739.1a16.06,16.06,0,0,1-1.82.3c-1.44.05-2.88,0-4.32,0H1619.24c-2.07,0-4.15,0-6.26-.07-2.31-1.54-4.6-3-6.83-4.55-4.45-3.11-8.86-6.3-13.32-9.4q-13.57-9.45-27.2-18.85Q1554.79,699,1544,691.47q-11.22-7.82-22.45-15.6l-22-15.34-22-15.35L1445.55,623q-10.82-7.53-21.64-15.09c-7.59-5.32-15.15-10.69-22.73-16-4.19-2.94-8.41-5.84-12.62-8.75-4.86-3.37-9.74-6.71-14.59-10.1q-13.17-9.19-26.32-18.43c-1.05-.73-2.13-1.43-3.18-2.16q-10.62-7.39-21.24-14.81a17.21,17.21,0,0,1-1.33-1.12,1.77,1.77,0,0,1,.84-1.78c2.74-2,5.47-3.9,8.23-5.81q13.8-9.57,27.61-19.11,10.83-7.53,21.64-15.08,11.43-8,22.86-15.87,10.23-7.11,20.45-14.27,13.17-9.21,26.32-18.44c3.27-2.29,6.54-4.59,9.83-6.87q13.8-9.56,27.63-19.08c1.29-.88,2.47-2.06,4.36-2.28,2.53,1.06,4.74,2.93,7.13,4.5,2,1.32,3.91,2.78,5.89,4.13q14.67,10,29.35,20,8.93,6.09,17.81,12.2,9.3,6.38,18.62,12.73l17.8,12.2,34,23.31,17.81,12.2,18.61,12.72,18.21,12.46,33.64,23,17.81,12.2L1747,592.31l18.21,12.46,18.21,12.46,33.63,23,18.22,12.46,18.21,12.46,18.21,12.46,33.63,23.05,18.21,12.46,18.21,12.47q7.92,5.42,15.83,10.85a12.51,12.51,0,0,1,1.78,1.56C1959.51,738.22,1959.41,738.64,1959.45,739.1Z"/></g></g></svg>